<?xml version="1.0" standalone="no"?>
<!DOCTYPE svg PUBLIC "-//W3C//DTD SVG 1.1//EN" "http://www.w3.org/Graphics/SVG/1.1/DTD/svg11.dtd" >
<svg xmlns="http://www.w3.org/2000/svg">
<metadata>Generated by IcoMoon</metadata>
<defs>
<font id="icomoon" horiz-adv-x="1024">
<font-face units-per-em="1024" ascent="960" descent="-64" />
<missing-glyph horiz-adv-x="1024" />
<glyph unicode="&#x20;" horiz-adv-x="512" d="" />
<glyph unicode="&#xe900;" glyph-name="arrow-down" d="M14.72 596.8l462.080-462.080c9.075-8.994 21.568-14.551 35.36-14.551s26.285 5.557 35.364 14.554l461.756 462.076c9.049 9.049 14.647 21.551 14.647 35.36 0 27.618-22.389 50.007-50.007 50.007-13.809 0-26.311-5.597-35.36-14.647l-426.56-426.88-426.56 426.88c-9.049 9.049-21.551 14.647-35.36 14.647-27.618 0-50.007-22.389-50.007-50.007 0-13.809 5.597-26.311 14.647-35.36z" />
<glyph unicode="&#xe901;" glyph-name="arrow-left" d="M348.48-49.28l461.76 462.080c8.994 9.075 14.551 21.568 14.551 35.36s-5.557 26.285-14.554 35.364l-461.756 461.756c-9.049 9.049-21.551 14.647-35.36 14.647-27.618 0-50.007-22.389-50.007-50.007 0-13.809 5.597-26.311 14.647-35.36l426.24-426.56-426.24-426.56c-9.049-9.049-14.647-21.551-14.647-35.36 0-27.618 22.389-50.007 50.007-50.007 13.809 0 26.311 5.597 35.36 14.647z" />
<glyph unicode="&#xe902;" glyph-name="arrow-right" d="M675.52 945.28l-461.76-462.080c-8.994-9.075-14.551-21.568-14.551-35.36s5.557-26.285 14.554-35.364l461.756-461.756c9.049-9.049 21.551-14.647 35.36-14.647 27.618 0 50.007 22.389 50.007 50.007 0 13.809-5.597 26.311-14.647 35.36l-426.24 426.56 426.24 426.56c9.049 9.049 14.647 21.551 14.647 35.36 0 27.618-22.389 50.007-50.007 50.007-13.809 0-26.311-5.597-35.36-14.647z" />
<glyph unicode="&#xe903;" glyph-name="arrow-up" d="M14.72 596.8l462.080-462.080c9.075-8.994 21.568-14.551 35.36-14.551s26.285 5.557 35.364 14.554l461.756 462.076c9.049 9.049 14.647 21.551 14.647 35.36 0 27.618-22.389 50.007-50.007 50.007-13.809 0-26.311-5.597-35.36-14.647l-426.56-426.88-426.56 426.88c-9.049 9.049-21.551 14.647-35.36 14.647-27.618 0-50.007-22.389-50.007-50.007 0-13.809 5.597-26.311 14.647-35.36z" />
<glyph unicode="&#xe904;" glyph-name="beach-active" d="M854.72 662.72c5.623 1.69 12.085 2.663 18.774 2.663 25.225 0 47.219-13.833 58.811-34.326l-117.585-0.336c9.198 14.878 23.039 26.129 39.472 31.84zM1012.8 630.72h-55.68c-14.166 33.571-46.808 56.704-84.853 56.704-8.635 0-16.991-1.192-24.914-3.419-22.842-6.774-41.786-22.692-52.565-43.519-7.234-13.225-11.356-28.404-11.356-44.547 0-8.921 1.259-17.548 3.609-25.714 11.563-36.71 45.879-63.345 86.416-63.345 0.050 0 0.1 0 0.15 0 0.087 0 0.2-0.001 0.312-0.001 8.983 0 17.693 1.168 25.987 3.359 28.631 9.017 51.218 31.814 59.925 60.635 0.387 1.462 0.512 2.399 0.512 3.366 0 6.022-4.882 10.905-10.905 10.905-5.056 0-9.308-3.441-10.543-8.109-6.595-22.192-23.661-39.258-45.301-45.714-5.953-1.682-12.244-2.58-18.744-2.58-30.353 0-56.136 19.565-65.427 46.771-0.144 2.726-0.144 5.926-2.384 8.166h44.48c12.371 0 22.4 10.029 22.4 22.4h139.2c0.198-0.013 0.428-0.021 0.661-0.021 5.832 0 10.56 4.728 10.56 10.56 0 0.232-0.008 0.463-0.022 0.692 0.013 0.161 0.020 0.386 0.020 0.613 0 6.256-4.987 11.347-11.202 11.516zM741.44 296.64c4.089 0.235 7.65 2.31 9.894 5.402l34.586 58.918c0.479 1.219 0.757 2.63 0.757 4.106 0 6.362-5.158 11.52-11.52 11.52-3.675 0-6.948-1.721-9.058-4.401l-34.579-58.905c-0.991-1.637-1.577-3.616-1.577-5.731 0-4.307 2.431-8.046 5.996-9.92 0.923-0.3 1.914-0.457 2.941-0.457s2.018 0.156 2.95 0.446zM911.68 474.88c-10.496 6.235-23.14 9.92-36.644 9.92-0.055 0-0.11 0-0.164 0h-123.512l-106.88 62.4c-6.352 3.514-13.926 5.582-21.983 5.582-3.55 0-7.007-0.401-10.326-1.162-10.764-3.086-19.78-10.331-25.181-19.89-3.623-6.563-5.691-14.137-5.691-22.194 0-3.55 0.401-7.007 1.162-10.326 3.086-10.764 10.331-19.78 19.89-25.181l112.531-65.709c7.935-4.83 17.531-7.689 27.795-7.689 0.353 0 0.706 0.003 1.058 0.010l95.947-0.001c6.186 0 11.2 5.014 11.2 11.2s-5.014 11.2-11.2 11.2h-96c-6.567 0.311-12.685 1.93-18.198 4.602l-113.322 65.478c-4.626 2.736-8.125 6.96-9.873 12.003-0.551 1.778-0.841 3.642-0.841 5.574 0 3.815 1.132 7.366 3.078 10.336 2.692 4.554 6.916 8.053 11.959 9.801 1.778 0.551 3.642 0.841 5.574 0.841 3.815 0 7.366-1.132 10.336-3.078l109.048-63.956c0.815-0.241 1.751-0.38 2.72-0.38s1.905 0.139 2.79 0.398l125.69-0.018c0.047 0 0.102 0 0.158 0 9.356 0 18.129-2.494 25.691-6.853 11.881-6.601 20.743-17.976 24.002-31.531 1.312-4.386 2.028-9.041 2.028-13.864 0-9.465-2.758-18.285-7.514-25.702l-95.886-163.33c-9.222-15.272-25.647-25.38-44.448-25.6h-202.272c-0.040 0.001-0.087 0.001-0.135 0.001-4.111 0-7.719-2.153-9.757-5.393l-102.428-177.968c-2.908-7.357-9.958-12.466-18.201-12.466-3.545 0-6.868 0.945-9.734 2.596l-95.906 55.63c-1.348 1.048-2.214 2.66-2.24 4.476 0.16 2.411 2.073 4.324 4.465 4.483l30.095 0.001c6.186 0 11.2 5.014 11.2 11.2s-5.014 11.2-11.2 11.2h-30.080c-11.531-0.528-21.268-7.686-25.528-17.729l-101.192 58.049c-51.278 29.72-110.641 55.804-172.975 75.137-8.485 2.407-11.086 2.836-13.787 2.836-4.643 0-8.99-1.268-12.714-3.476-6.448-2.66-11.561-7.773-14.221-14.163s-0.064-2.414-0.064-4.654v-6.72c-0.008-0.763-0.012-1.663-0.012-2.565 0-108.109 65.141-201.004 158.313-241.576 2.366-0.903 3.136-1.044 3.939-1.044s1.573 0.141 2.287 0.399l280.273-0.015c21.701 0.081 41.522 8.062 56.752 21.215 9.068 7.971 21.184 12.892 34.448 12.892s25.379-4.921 34.619-13.037c13.149-11.868 30.734-19.16 50.021-19.16s36.872 7.292 50.146 19.27c9.209 8.199 21.502 13.244 34.974 13.244s25.765-5.045 35.093-13.349c13.067-12.276 30.716-19.911 50.147-20.113 6.226 0 11.24 5.014 11.24 11.2s-5.014 11.2-11.2 11.2c-0.133-0.001-0.289-0.002-0.446-0.002-13.506 0-25.82 5.102-35.121 13.484-13.161 11.877-30.746 19.17-50.033 19.17s-36.872-7.292-50.146-19.27c-9.209-8.199-21.502-13.244-34.974-13.244s-25.765 5.045-35.093 13.349c-13.21 12.282-31.047 19.848-50.651 19.848-18.416 0-35.273-6.677-48.282-17.742-11.218-9.545-25.973-15.452-42.104-15.592h-277.15c-85.535 37.178-144.328 120.805-144.64 218.2v5.48c0 1.237 1.003 2.24 2.24 2.24s2.24 0 3.2 0c66.544-19.255 124.52-44.656 178.235-76.488l216.965-126.072c6.139-3.203 13.37-5.186 21.039-5.438 15.601 0.756 28.881 9.656 35.809 22.49l98.992 172.708h199.36c27.074 0.377 50.678 14.884 63.81 36.465l96.19 163.855c6.291 10.895 10.002 23.963 10.002 37.898 0 6.657-0.847 13.116-2.439 19.275-4.448 19.635-17.065 36.23-34.095 46.003zM600.96 624c-1.637 0.991-3.616 1.577-5.731 1.577-4.307 0-8.046-2.431-9.92-5.996l-265.309-462.141v258.56c0 6.186-5.014 11.2-11.2 11.2s-11.2-5.014-11.2-11.2v-300.8c0.045-5.061 3.175-9.38 7.598-11.171l3.282-0.029c0.040-0.001 0.087-0.001 0.135-0.001 4.111 0 7.719 2.153 9.757 5.393l288.028 497.648c1.059 1.85 1.683 4.066 1.683 6.428 0 4.115-1.894 7.787-4.858 10.193zM568.96 456.96c-14.531-15.132-30.562-28.623-47.916-40.299-4.216-2.6-6.3-6.045-6.3-9.976 0-2.391 0.771-4.602 2.078-6.397 1.846-2.695 4.943-4.46 8.453-4.46 0.171 0 0.341 0.004 0.51 0.012 2.489 0.265 4.77 1.064 6.768 2.28 19.441 13.502 36.508 28.132 51.967 44.312 2.179 2.11 3.457 4.89 3.457 7.968s-1.278 5.858-3.333 7.837c-2.081 1.846-4.831 2.971-7.843 2.971s-5.763-1.125-7.852-2.978zM307.2 578.24c0.072-0.002 0.156-0.003 0.241-0.003 2.928 0 5.568 1.229 7.434 3.198l357.124 355.205h81.28c-1.25-23.183-8.105-44.526-19.223-63.016l-102.057-176.344c-0.479-1.219-0.757-2.63-0.757-4.106 0-6.362 5.158-11.52 11.52-11.52 3.675 0 6.948 1.721 9.058 4.401l101.779 177.945c14.057 24.278 22.366 53.405 22.4 84.47 0.029 0.304 0.046 0.646 0.046 0.992 0 5.832-4.728 10.56-10.56 10.56-0.241 0-0.481-0.008-0.718-0.024l-95.968 0.002c-0.072 0.002-0.156 0.003-0.241 0.003-2.928 0-5.568-1.229-7.434-3.198l-361.604-359.685c-2.058-1.982-3.336-4.762-3.336-7.84s1.278-5.858 3.333-7.837c2.015-1.895 4.7-3.093 7.662-3.203zM500.8 236.48l-98.88-172.48c-0.991-1.637-1.577-3.616-1.577-5.731 0-4.307 2.431-8.046 5.996-9.92 0.876-0.271 1.813-0.41 2.781-0.41s1.905 0.139 2.79 0.398c4.019 0.218 7.58 2.292 9.824 5.384l99.226 170.278c9.222 15.272 25.647 25.38 44.448 25.6h198.112c6.186 0 11.2 5.014 11.2 11.2s-5.014 11.2-11.2 11.2h-198.080c-0.519 0.014-1.131 0.021-1.744 0.021-26.681 0-49.927-14.709-62.071-36.461zM244.8 301.12c0.198-0.013 0.428-0.021 0.661-0.021 5.832 0 10.56 4.728 10.56 10.56 0 0.232-0.008 0.463-0.022 0.692 0.365 185.085 150.515 335.009 335.681 335.009 0.225 0 0.45 0 0.675-0.001 4.839-0.227 9.435-1.029 13.809-2.344 13.489-3.223 24.863-12.086 31.468-23.965 4.52-7.815 7.112-16.894 7.112-26.579 0-4.513-0.563-8.895-1.622-13.079-0.14-0.449-0.266-1.386-0.266-2.353 0-6.022 4.882-10.905 10.905-10.905 5.056 0 9.308 3.441 10.543 8.109 1.425 5.635 2.234 12.016 2.234 18.587 0 14-3.67 27.143-10.1 38.52-9.934 16.456-25.991 28.865-45.025 34.046-5.030 1.596-10.206 2.446-15.581 2.446-1.010 0-2.012-0.030-3.007-0.089-0.243 0.008-0.693 0.009-1.143 0.009-197.474 0-357.579-159.993-357.76-357.425-0.013-0.215-0.021-0.446-0.021-0.678 0-5.832 4.728-10.56 10.56-10.56 0.232 0 0.463 0.008 0.692 0.022z" />
<glyph unicode="&#xe905;" glyph-name="beach-family" d="M822.72 32c0-26.51-21.49-48-48-48h-68.48v259.2c0.102 0.567 0.16 1.22 0.16 1.886 0 6.186-5.014 11.2-11.2 11.2s-11.2-5.014-11.2-11.2c0-0.666 0.058-1.319 0.17-1.954l-0.010-258.493h-68.48c-9.527 0.072-18.372 2.928-25.781 7.791 1.806 5.568 2.741 12.091 2.741 18.833 0 0.090 0 0.18 0 0.27v262.706l21.76 15.36 96 68.48c9.711 6.678 17.006 16.251 20.692 27.462 1.329 4.53 2.031 9.301 2.031 14.236 0 25.049-18.101 45.87-41.937 50.097-2.952 0.539-5.995 0.821-9.104 0.821-10.991 0-21.158-3.53-29.429-9.517l-84.973-60.699c12.731 16.475 20.407 37.421 20.407 60.16s-7.676 43.685-20.577 60.389l0.17 74.971c0.883 51.777 42.623 93.517 94.316 94.399l66.324 0.001c51.777-0.883 93.517-42.623 94.399-94.316zM570.56 10.56c0-27.747-22.493-50.24-50.24-50.24h-20.48v119.68c-0.934 5.321-5.521 9.314-11.040 9.314s-10.106-3.992-11.030-9.246l-0.010-118.787h-20.48c-27.747 0-50.24 22.493-50.24 50.24v276.48l-24.64 16c-2.445 0.932-4.558 2.119-6.463 3.566l-95.937 69.394c-5.992 4.371-10.197 10.882-11.495 18.388-0.571 2.257-0.885 4.651-0.885 7.119 0 4.958 1.267 9.62 3.495 13.68 4.297 5.844 10.808 10.049 18.314 11.348 1.669 0.304 3.391 0.463 5.151 0.463 6.171 0 11.883-1.962 16.547-5.297l76.074-54.341 46.72-32c9.034 5.944 20.091 9.514 31.978 9.6h46.102c11.98-0.271 23.024-4.061 32.2-10.37l-0.2 0.13 23.36 16.96 96 69.44c3.429 1.556 7.435 2.463 11.654 2.463 15.906 0 28.8-12.894 28.8-28.8 0-7.962-3.231-15.17-8.453-20.383l-128-89.28zM384 152h-183.040c-0.193-0.016-0.418-0.025-0.645-0.025-4.491 0-8.151 3.559-8.314 8.010v340.815c0 0.001 0 0.002 0 0.003 0 43.299 35.101 78.4 78.4 78.4 0.225 0 0.45-0.001 0.674-0.003h56.286c43.299 0 78.4-35.101 78.4-78.4v-4.16c-10.377-15.431-16.563-34.433-16.563-54.88s6.186-39.449 16.789-55.236l-0.225-2.524-79.68 56.96c-8.751 6.594-19.806 10.56-31.787 10.56-0.075 0-0.15 0-0.224 0-27.367-0.919-49.213-23.335-49.213-50.853 0-5.26 0.798-10.334 2.28-15.107 3.72-11.218 11.010-20.785 20.524-27.362l83.699-59.637 34.24-24.64zM380.8 34.88c0-27.747-22.493-50.24-50.24-50.24h-64c-27.471 0.361-49.601 22.714-49.601 50.236 0 0.114 0 0.228 0.001 0.342v95.982h164.16zM198.4 707.84c-0.001 0.19-0.002 0.415-0.002 0.639 0 55.494 44.986 100.48 100.48 100.48s100.48-44.986 100.48-100.48c0-55.38-44.803-100.296-100.141-100.479-0.019 0-0.020 0-0.022 0-55.333 0-100.252 44.584-100.795 99.789zM488.64 519.040c42.696-0.097 77.27-34.731 77.27-77.44 0-32.813-20.408-60.859-49.223-72.139l-55.567-0.182c-29.342 11.461-49.75 39.507-49.75 72.32 0 42.709 34.574 77.343 77.261 77.44zM576 817.28c0 66.628 54.012 120.64 120.64 120.64s120.64-54.012 120.64-120.64c0-66.628-54.012-120.64-120.64-120.64s-120.64 54.012-120.64 120.64zM757.76 689.28c48.548 23.472 81.44 72.342 81.44 128.894 0 78.822-63.898 142.72-142.72 142.72s-142.72-63.898-142.72-142.72c0-56.552 32.892-105.423 80.59-128.523-51.512-12.434-90.018-58.499-90.349-113.615v-51.877c-15.895 11.307-35.703 18.076-57.092 18.076-23.813 0-45.666-8.39-62.764-22.376-7.449 37.893-35.346 67.604-71.434 77.73 40.278 20.663 67.93 62.318 67.93 110.431 0 67.865-55.015 122.88-122.88 122.88s-122.88-55.015-122.88-122.88c0-48.113 27.652-89.768 67.93-109.939-42.16-12.154-73.228-50.525-73.85-96.251l-0.001-354.95c0-9.367 7.593-16.96 16.96-16.96h7.68v-96c0-40.118 32.522-72.64 72.64-72.64h64c22.904 0.043 43.305 10.728 56.526 27.371 9.561-29.753 37.052-51.051 69.518-51.051 0.013 0 0.025 0 0.038 0h63.998c0.175-0.002 0.383-0.002 0.591-0.002 24.955 0 46.97 12.584 60.048 31.752 10.14-5.584 22.131-9.029 34.927-9.029 0.040 0 0.081 0 0.121 0h159.994c38.192 0.889 68.812 32.060 68.812 70.382 0 0.456-0.004 0.912-0.013 1.366l0.001 543.932c-0.19 54.346-37.466 99.933-87.831 112.785z" />
<glyph unicode="&#xe906;" glyph-name="beach-party" d="M624.96-64l-3.84 14.4c-29.801-5.837-64.069-9.177-99.117-9.177-80.010 0-155.955 17.406-224.254 48.638l-2.069 1.179v5.76c-2.318 8.778-3.648 18.856-3.648 29.245 0 19.185 4.538 37.31 12.6 53.36 26.888 51.475 9.608 108.755-48.952 159.315-95.68 87.36-195.2 241.28-155.2 389.76 21.051 65.388 48.299 122.179 82.048 174.373l9.472 16.347c10.16 23.51 28.737 41.775 51.841 51.287 3.136 0.706 6.008 0.977 8.944 0.977 11.497 0 22.024-4.153 30.163-11.041 9.707-7.498 16.214-18.873 17.202-31.793-0.731-15.889-5.15-30.447-12.399-43.184l-31.752-63.526c-9.28-19.2-19.2-39.040-29.44-57.92-23.543-35.547-37.615-79.156-37.76-126.042v-2.278c3.914-37.256 19.378-70.314 42.693-96.149 43.707-51.371 115.707-99.051 187.707-80.171 64 16.96 96 80.64 124.48 136.96l3.52 7.040c4.8 9.28 9.28 18.56 14.080 27.2l10.24 18.56 64 118.4 4.48 4.48c8.541 11.546 22.111 18.95 37.409 18.95 25.626 0 46.4-20.774 46.4-46.4 0-5.411-0.926-10.606-2.629-15.435l-117.34-231.675c-3.52-5.44-67.84-106.56-12.48-205.76l15.36-27.52c23.074-49.163 36.541-106.767 36.541-167.515 0-10.080-0.371-20.073-1.099-29.967l2.638-8.918-7.040-1.92zM318.4 8.64c59.615-26.189 129.106-41.431 202.158-41.431 34.67 0 68.537 3.433 101.282 9.978-3.030 4.661-2.888 10.765-2.888 16.902 0 58.407-12.879 113.806-35.952 163.512l-14.36 25.12c-61.76 110.080 4.8 217.92 12.48 230.080l116.16 227.2c0.457 1.666 0.72 3.578 0.72 5.552 0 8.428-4.791 15.737-11.798 19.351-3.043 1.581-6.501 2.475-10.168 2.475-6.907 0-13.073-3.172-17.122-8.138l-65.952-120.68-10.24-18.88c-4.8-8.32-9.28-17.28-13.76-26.56l-3.52-7.040c-32-61.12-64-129.92-140.16-149.76-82.56-22.080-164.16 32-212.48 88-23.53 25.97-40.109 58.651-46.549 94.84l-0.171 1.16v11.2c-0.129 3.003-0.202 6.526-0.202 10.066 0 49.401 14.261 95.472 38.89 134.32 9.632 17.854 18.912 37.374 28.512 56.254l13.44 27.2 18.56 38.080c5.345 8.609 8.992 18.814 10.21 29.752-0.882 5.899-3.93 10.627-8.23 13.727-3.872 3.577-8.994 5.746-14.623 5.746-1.185 0-2.348-0.096-3.481-0.281-13.636-3.503-25.476-21.103-36.036-39.663l-10.88-18.56c-31.076-47.779-57.462-102.776-76.375-161.137-38.505-143.183 54.935-287.183 146.135-368.463 67.52-60.16 87.040-128 54.080-192-5.847-11.905-9.267-25.911-9.267-40.715 0-6.083 0.577-12.032 1.68-17.794zM939.2 480v0c0.032 0.288 0.050 0.622 0.050 0.96s-0.018 0.672-0.053 1.001l0.004-0.041-1.92 1.92c-0.837 1.77-2.159 3.195-3.795 4.136l-1.965 0.024h-9.28l-170.56-46.4c-5.945-1.608-10.248-6.953-10.248-13.304 0-0.16 0.003-0.32 0.008-0.479l-0.001-125.737c-9.243 6.196-20.617 9.889-32.854 9.889-32.872 0-59.52-26.648-59.52-59.52s26.648-59.52 59.52-59.52c32.872 0 59.52 26.648 59.52 59.52 0 1.249-0.038 2.49-0.114 3.72l0.008 164.951 143.36 39.040v-108.16c-9.126 5.981-20.308 9.54-32.32 9.54-32.872 0-59.52-26.648-59.52-59.52s26.648-59.52 59.52-59.52c32.872 0 59.52 26.648 59.52 59.52 0 0.021 0 0.043 0 0.064v177.917zM732.48 232.96c-5.782-5.738-13.746-9.284-22.538-9.284-0.176 0-0.352 0.001-0.528 0.004-17.647 0-31.974 14.327-31.974 32s14.327 32 32 32c17.673 0 32-14.327 32-32 0.007-0.245 0.011-0.533 0.011-0.822 0-8.635-3.42-16.471-8.979-22.227zM902.72 279.68c-5.767-5.656-13.676-9.147-22.399-9.147-17.673 0-32 14.327-32 32s14.327 32 32 32c17.607 0 31.893-14.221 31.999-31.803 0.003-0.16 0.004-0.337 0.004-0.514 0-8.951-3.675-17.044-9.599-22.851zM616 950.72v0 0 2.56c-1.789 3.103-4.567 5.466-7.896 6.687l-0.104 0.033h-7.68l-134.4-36.48c-5.945-1.608-10.248-6.953-10.248-13.304 0-0.16 0.003-0.32 0.008-0.479l-0.001-93.097c-6.519 3.37-14.228 5.346-22.4 5.346-27.393 0-49.6-22.207-49.6-49.6s22.207-49.6 49.6-49.6c27.393 0 49.6 22.207 49.6 49.6 0 0.033 0 0.066 0 0.099v127.995l106.24 27.52v-74.24c-6.466 3.428-14.135 5.44-22.274 5.44-0.044 0-0.088 0-0.133 0-27.386 0-49.593-22.207-49.593-49.6s22.207-49.6 49.6-49.6c27.393 0 49.6 22.207 49.6 49.6v136.96c0.022 0.24 0.035 0.518 0.035 0.8s-0.013 0.56-0.037 0.836c-0.020 0.883-0.135 1.764-0.335 2.611zM449.6 758.72c-4.069-4.15-9.734-6.723-16-6.723-12.371 0-22.4 10.029-22.4 22.4s10.029 22.4 22.4 22.4c12.37 0 22.398-10.027 22.4-22.397-0.161-6.68-3.222-12.613-7.966-16.613zM582.72 795.2c-3.996-4.076-9.531-6.63-15.663-6.72h-0.017c-12.137 0.076-21.946 9.932-21.946 22.080 0 12.194 9.886 22.080 22.080 22.080s22.080-9.886 22.080-22.080c0-6.13-2.498-11.677-6.533-15.678zM375.040 409.92c-70.658 3.574-126.595 61.735-126.595 132.96s55.937 129.385 126.277 132.947l0.318 0.013c70.658-3.574 126.595-61.735 126.595-132.96s-55.937-129.385-126.277-132.947zM375.040 651.2c-59.909-0.004-108.472-48.571-108.472-108.48 0-59.912 48.568-108.48 108.48-108.48s108.48 48.568 108.48 108.48c0 0.45-0.003 0.9-0.008 1.348 0.002 0.122 0.003 0.347 0.003 0.572 0 59.558-48.282 107.84-107.84 107.84-0.113 0-0.226 0-0.339-0.001h0.017z" />
<glyph unicode="&#xe907;" glyph-name="beach-relax" d="M307.2 757.12c20.583-0.62 40.077-4.439 58.277-10.973 55.591-22.147 102.842-58.795 137.609-105.316 13.466-20.989 24.342-44.215 32.038-68.846 5.356-16.465 5.996-19.665 8.236-28.305l-393.28 4.48-109.44 6.080c3.299 14.181 6.707 25.735 10.675 37.026 8.282 26.824 21.147 52.328 37.544 75.122 41.776 41.905 96.344 72.387 157.453 84.947 16.977 3.911 34.164 5.955 51.828 5.955 3.074 0 6.133-0.062 9.177-0.185zM307.2 789.12c-2.79 0.108-6.066 0.17-9.357 0.17-20.512 0-40.464-2.394-59.593-6.919-67.703-13.772-127.749-47.33-174.217-94.338-19.609-25.174-34.959-54.722-44.364-86.81-10.708-32.582-17.108-57.222-17.108-57.222v0c-0.262-1.117-0.413-2.4-0.413-3.718 0-3.779 1.236-7.269 3.325-10.088 2.857-3.83 7.327-6.389 12.404-6.672l130.923-7.362 416-4.48c0.038 0 0.084-0.001 0.129-0.001 9.19 0 16.64 7.45 16.64 16.64 0 1.363-0.164 2.687-0.473 3.954s-5.737 22.606-14.697 49.486c-8.903 30.318-21.455 56.782-37.466 80.738-38.42 50.71-90.551 90.689-150.891 114.288-22.158 8.119-45.025 12.737-68.85 13.603zM850.24 780.8c19.926-4.3 36.288-16.885 45.583-33.886 1.836-5.286 2.793-10.966 2.793-16.87 0-9.565-2.513-18.543-6.914-26.31-8.902-13.567-23.38-23.202-40.191-25.618-19.58 0.849-36.452 10.39-47.235 24.763-4.151 7.878-6.519 17.018-6.519 26.711 0 5.702 0.82 11.213 2.347 16.422 3.852 10.089 10.739 18.73 19.556 24.752 8.012 6.396 18.037 10.236 28.954 10.356zM856 812.8c-2.409 0.286-5.198 0.449-8.026 0.449-17.278 0-33.134-6.086-45.542-16.231-14.817-10.185-26.043-24.93-31.706-42.197-3.361-9.154-5.211-19.059-5.211-29.396 0-15.671 4.251-30.348 11.662-42.943 15.958-23.677 43.085-39.307 73.863-39.307 0.732 0 1.461 0.009 2.189 0.026 28.839 1.967 53.622 18.134 67.516 41.525 7.734 12.449 12.191 27.087 12.191 42.767 0 11.515-2.404 22.469-6.738 32.387-12.967 27.209-38.26 47.333-68.636 53.143zM846.72 904.32c-4.538-0.139-8.598-2.074-11.515-5.114-2.785-2.972-4.492-6.973-4.492-11.372 0-0.167 0.002-0.333 0.007-0.498l-0.001-35.176c0-9.19 7.45-16.64 16.64-16.64 0.001 0 0.002 0 0.003 0 9.19 0 16.64 7.45 16.64 16.64 0 0.113-0.001 0.225-0.003 0.337v35.183c0 0.001 0 0.002 0 0.003 0 9.19-7.45 16.64-16.64 16.64-0.113 0-0.225-0.001-0.337-0.003zM847.68 620.8c-4.538-0.139-8.598-2.074-11.515-5.114-2.785-2.972-4.492-6.973-4.492-11.372 0-0.167 0.002-0.333 0.007-0.498l-0.001-35.176c0-9.19 7.45-16.64 16.64-16.64 9.053 0.178 16.323 7.558 16.323 16.637 0 0.114-0.001 0.227-0.003 0.34v35.183c0 0.001 0 0.002 0 0.003 0 9.19-7.45 16.64-16.64 16.64-0.113 0-0.225-0.001-0.337-0.003zM1007.040 745.6h-35.2c-9.19 0-16.64-7.45-16.64-16.64 0.086-4.648 2.030-8.826 5.116-11.837 3.007-2.971 7.138-4.804 11.696-4.804 0.052 0 0.104 0 0.155 0.001h35.192c1.369-0.406 2.943-0.64 4.571-0.64 9.19 0 16.64 7.45 16.64 16.64s-7.45 16.64-16.64 16.64c-1.628 0-3.201-0.234-4.688-0.67zM723.52 744.64h-35.2c-0.083 0.002-0.18 0.002-0.278 0.002-4.518 0-8.607-1.836-11.562-4.802-3.060-3.020-4.955-7.212-4.955-11.847 0-9.19 7.45-16.64 16.64-16.64 0.167 0 0.333 0.002 0.499 0.007l35.176-0.001c1.369-0.406 2.943-0.64 4.571-0.64 9.19 0 16.64 7.45 16.64 16.64s-7.45 16.64-16.64 16.64c-1.628 0-3.201-0.234-4.688-0.67zM960 858.24c-4.538-0.139-8.598-2.074-11.515-5.114l-24.645-25.286c-3.056-3.018-4.948-7.208-4.948-11.84s1.892-8.822 4.946-11.838c3.020-3.057 7.21-4.95 11.842-4.95s8.822 1.892 11.838 4.946l24.642 25.282c3.267 3.047 5.303 7.376 5.303 12.18 0 9.19-7.45 16.64-16.64 16.64-0.289 0-0.577-0.007-0.863-0.022zM759.68 656.96c-4.538-0.139-8.598-2.074-11.515-5.114l-24.645-25.286c-3.313-3.022-5.396-7.344-5.44-12.152-0.001-0.066-0.001-0.134-0.001-0.203 0-9.19 7.45-16.64 16.64-16.64 4.962 0 9.417 2.172 12.466 5.617l24.655 25.298c3.067 3.020 4.968 7.218 4.968 11.86 0 9.19-7.45 16.64-16.64 16.64-0.284 0-0.567-0.007-0.847-0.021zM734.080 857.28c-8.979-0.27-16.155-7.613-16.155-16.633 0-4.635 1.895-8.828 4.953-11.845l25.282-24.642c3.004-2.968 7.134-4.801 11.693-4.801 0.052 0 0.104 0 0.155 0.001-0.007 0-0.006 0-0.005 0 9.19 0 16.64 7.45 16.64 16.64 0 0.113-0.001 0.225-0.003 0.337-0.048 4.638-2.001 8.828-5.114 11.818l-25.286 24.645c-2.956 2.967-7.045 4.802-11.562 4.802-0.098 0-0.195-0.001-0.292-0.003zM935.36 657.6c-9.122-0.089-16.482-7.505-16.482-16.639 0-4.795 2.028-9.116 5.273-12.152l25.289-24.649c3.037-3.189 7.316-5.173 12.058-5.173 9.19 0 16.64 7.45 16.64 16.64 0 4.821-2.051 9.164-5.327 12.203l-25.291 24.65c-3.004 2.968-7.134 4.801-11.693 4.801-0.052 0-0.104 0-0.155-0.001zM282.56 828.8c-8.916-0.347-16.013-7.659-16.013-16.628 0-0.229 0.005-0.457 0.014-0.684 4.799-177.567 16.959-377.247 11.839-523.487-0.406-1.369-0.64-2.943-0.64-4.571 0-9.19 7.45-16.64 16.64-16.64s16.64 7.45 16.64 16.64c0 1.628-0.234 3.201-0.67 4.688 5.15 149.002-7.010 348.682-11.81 525.322-0.173 9.057-7.555 16.332-16.637 16.332-0.226 0-0.451-0.005-0.675-0.013zM236.8 781.76c-40.32-29.12-51.52-84.8-64-125.76-5.793-22.45-9.901-48.718-11.468-75.67-1.332-26.41-1.332-46.89-1.332-46.89h32s0 19.84 2.56 44.16c1.607 25.757 5.253 49.728 10.821 72.952 12.539 38.728 26.299 85.448 50.619 104.328l-19.2 26.88zM336.32 785.6l-16.32-29.44c17.186-11.135 29.988-27.777 35.999-47.388 8.801-23.012 14.561-49.252 22.561-73.892 7.436-31.357 13.118-68.657 15.864-106.77l32.136-0.11c-2.242 42.691-8.415 82.776-18.203 121.421-6.117 17.779-11.877 45.299-22.117 70.899-9.32 27.256-27.478 49.456-50.992 63.703zM125.76 404.16c-9.168-0.030-16.588-7.468-16.588-16.64 0-3.461 1.057-6.676 2.865-9.338 50.203-75.782 130.843-144.902 193.883-214.982v0c3.055-3.348 7.437-5.441 12.307-5.441 0.061 0 0.121 0 0.182 0.001 212.151 3.2 444.471 14.080 589.431-6.72l62.080-140.48c2.696-6.3 8.842-10.634 16-10.634 9.584 0 17.354 7.77 17.354 17.354 0 2.426-0.498 4.736-1.397 6.833l-67.477 149.647c-2.354 5.101-7.072 8.759-12.709 9.589-149.531 23.051-384.091 11.211-596.571 7.691-64 70.080-140.48 137.28-185.6 205.44v0c-3.003 4.647-8.158 7.68-14.022 7.68-0.020 0-0.041 0-0.061 0zM322.56 188.48c-6.753-0.135-12.508-4.272-14.999-10.131l-64.041-152.749c-0.818-1.94-1.293-4.194-1.293-6.56 0-9.55 7.742-17.293 17.293-17.293 7.185 0 13.346 4.382 15.958 10.619l64.042 152.754c0.896 1.978 1.418 4.288 1.418 6.721 0 9.19-7.45 16.64-16.64 16.64-0.048 0-0.097 0-0.145-0.001z" />
<glyph unicode="&#xe908;" glyph-name="beach" d="M5.76-20.8l-5.76 42.24 258.56 34.56c85.927 12.124 185.183 19.045 286.057 19.045 169.967 0 335.343-19.652 493.982-56.807l-24.198-38.719c-140.935 33.523-302.748 52.744-469.050 52.744-99.216 0-196.834-6.841-292.409-20.078zM302.72 687.040l666.88-235.52c45.12 160-54.72 338.24-231.36 401.6-37.708 14.323-81.309 22.616-126.847 22.616-51.368 0-100.271-10.552-144.661-29.607-71.894-29.969-130.395-86.395-163.208-157.156zM974.72 404.16l-706.88 249.92-11.84 27.52c35.058 93.589 106.051 166.773 195.746 203.943 49.313 21.209 104.024 33.047 161.499 33.047 50.728 0 99.302-9.222 144.138-26.080 202.617-73.309 313.977-287.069 246.137-476.509zM790.72 472.32l-40 14.4 7.36 20.16c64.32 179.84 41.92 325.12-19.52 346.24-30.080 10.88-72.64-8.32-116.16-53.12-52.253-57.494-93.492-126.057-119.716-201.639l-8.604-24.281-40 14.4 7.36 20.16c29.663 85.688 74.17 159.371 131.001 221.61 56.199 57.75 113.479 80.47 159.559 63.51 93.76-33.92 113.6-209.92 44.8-400.96zM424.067 58.216l182.724 492.645 39.904-14.8-182.724-492.645-39.904 14.8z" />
<glyph unicode="&#xe909;" glyph-name="check" d="M1024 778.24l-744.64-744.64-279.36 279.36 92.48 92.48 186.88-185.92 651.2 652.16 93.44-93.44z" />
<glyph unicode="&#xe90a;" glyph-name="close" d="M21.12-39.36c15.384-15.286 36.584-24.734 59.992-24.734 1.41 0 2.812 0.034 4.205 0.102 1-0.068 2.402-0.102 3.812-0.102 23.407 0 44.608 9.448 59.996 24.739l358.396 363.196 363.2-363.2c16.198-16.768 38.883-27.18 64-27.18 49.12 0 88.94 39.82 88.94 88.94 0 24.003-9.509 45.785-24.965 61.786l-367.655 363.814 362.88 362.24c16.364 15.544 26.544 37.463 26.544 61.76s-10.18 46.216-26.508 61.725c-15.58 16.399-37.5 26.579-61.797 26.579s-46.216-10.18-61.725-26.508l-362.915-363.237-363.2 362.88c-15.531 16.264-37.385 26.376-61.6 26.376s-46.069-10.112-61.569-26.343c-16.395-15.577-26.575-37.496-26.575-61.793s10.18-46.216 26.508-61.725l362.917-361.955-362.88-363.84c-16.364-15.544-26.544-37.463-26.544-61.76s10.18-46.216 26.508-61.725z" />
<glyph unicode="&#xe90b;" glyph-name="out-cycle" d="M213.44 392.64c-94.198 0-170.56-76.362-170.56-170.56s76.362-170.56 170.56-170.56c94.198 0 170.56 76.362 170.56 170.56-0.182 94.125-76.435 170.378-170.543 170.56zM213.44 8.64c-117.88 0-213.44 95.56-213.44 213.44s95.56 213.44 213.44 213.44c117.88 0 213.44-95.56 213.44-213.44-0.182-117.806-95.634-213.258-213.423-213.44zM810.56 392.64c-94.198 0-170.56-76.362-170.56-170.56s76.362-170.56 170.56-170.56c94.198 0 170.56 76.362 170.56 170.56-0.182 94.125-76.435 170.378-170.543 170.56zM810.56 8.64c-117.88 0-213.44 95.56-213.44 213.44s95.56 213.44 213.44 213.44c117.88 0 213.44-95.56 213.44-213.44-0.182-117.806-95.634-213.258-213.423-213.44zM512 177.28l-42.56 4.16 20.16 202.56-217.28 150.4 6.72 16c3.84 8.64 92.16 213.76 293.44 247.36l17.92 2.24 64-194.88h198.080v-42.56h-227.84l-64 188.8c-136.96-32-213.12-160-235.84-202.88l209.6-145.28zM746.56 883.52c-23.505 0-42.56-19.055-42.56-42.56s19.055-42.56 42.56-42.56c23.505 0 42.56 19.055 42.56 42.56-0.18 23.433-19.127 42.38-42.543 42.56zM746.56 755.52c-47.187 0-85.439 38.253-85.439 85.44s38.253 85.44 85.44 85.44c47.187 0 85.44-38.253 85.44-85.44 0-0.113 0-0.225-0.001-0.337-0.182-47.032-38.365-85.103-85.439-85.103 0 0 0 0-0.001 0z" />
<glyph unicode="&#xe90c;" glyph-name="out-distance" d="M719.36 138.88l295.36 295.36c5.751 5.784 9.305 13.757 9.305 22.56s-3.555 16.776-9.307 22.562l-295.358 295.678c-5.559 4.783-12.847 7.695-20.815 7.695-17.673 0-32-14.327-32-32 0-7.968 2.912-15.255 7.73-20.857l272.925-272.918-272.96-272.96c-6.865-5.904-11.185-14.6-11.185-24.305 0-17.673 14.327-32 32-32 9.705 0 18.401 4.321 24.27 11.143zM304.64 775.040l-295.36-295.040c-5.751-5.784-9.305-13.757-9.305-22.56s3.555-16.776 9.307-22.562l295.358-295.358c5.559-4.783 12.847-7.695 20.815-7.695 17.673 0 32 14.327 32 32 0 7.968-2.912 15.255-7.73 20.857l-272.605 272.278 272.96 272.96c5.746 5.786 9.298 13.758 9.298 22.56 0 17.683-14.335 32.018-32.018 32.018-8.881 0-16.918-3.616-22.718-9.456z" />
<glyph unicode="&#xe90d;" glyph-name="out-level" d="M201.6 398.4c-0.594 0.022-1.291 0.035-1.991 0.035-30.457 0-55.331-23.905-56.883-53.976l-0.006-320.138c0.337-31.201 25.708-56.364 56.957-56.364 0.789 0 1.574 0.016 2.355 0.048 0.477-0.025 1.169-0.038 1.864-0.038 30.57 0 55.515 24.082 56.899 54.31l0.005 320.125c-0.515 31.062-25.816 56.044-56.953 56.044-0.79 0-1.577-0.016-2.36-0.048zM201.6-64c-1.369-0.073-2.972-0.115-4.584-0.115-49.010 0-89.022 38.523-91.407 86.941l-0.008 320.214c2.046 48.747 42.061 87.49 91.125 87.49 1.715 0 3.419-0.047 5.111-0.141 1.221 0.093 2.925 0.141 4.64 0.141 49.064 0 89.078-38.744 91.118-87.306l0.006-320.184c-2.394-48.631-42.406-87.155-91.416-87.155-1.612 0-3.215 0.042-4.807 0.124zM509.44-64c-1.369-0.073-2.972-0.115-4.584-0.115-49.010 0-89.022 38.523-91.407 86.941l-0.008 540.694c2.046 48.747 42.061 87.49 91.125 87.49 1.715 0 3.419-0.047 5.111-0.141 1.221 0.093 2.925 0.141 4.64 0.141 49.064 0 89.078-38.744 91.118-87.306l0.006-540.664c-2.394-48.631-42.406-87.155-91.416-87.155-1.612 0-3.215 0.042-4.807 0.124zM816.96 928c-0.594 0.022-1.291 0.035-1.991 0.035-30.457 0-55.331-23.905-56.883-53.976l-0.006-851.018c2.335-30.769 27.875-54.85 59.040-54.85s56.705 24.081 59.028 54.651l0.012 849.8c-0.867 30.782-26.027 55.405-56.939 55.405-0.795 0-1.587-0.016-2.374-0.049zM816.96-64c-1.369-0.073-2.972-0.115-4.584-0.115-49.010 0-89.022 38.523-91.407 86.941l-0.008 849.814c7.343 46.358 47.022 81.379 94.88 81.379s87.537-35.020 94.809-80.833l0.071-850.146c-2.439-48.594-42.432-87.070-91.412-87.070-0.826 0-1.649 0.011-2.469 0.033z" />
<glyph unicode="&#xe90e;" glyph-name="out-time" d="M899.52 448c0 15.906-12.894 28.8-28.8 28.8h-329.92v253.12c0 15.906-12.894 28.8-28.8 28.8s-28.8-12.894-28.8-28.8v-281.92c0-15.906 12.894-28.8 28.8-28.8h358.72c15.906 0 28.8 12.894 28.8 28.8zM57.6 448c0 250.958 203.442 454.4 454.4 454.4s454.4-203.442 454.4-454.4c0-250.958-203.442-454.4-454.4-454.4-250.811 0.364-454.036 203.588-454.4 454.364zM1024 448c0 282.77-229.23 512-512 512s-512-229.23-512-512c0-282.77 229.23-512 512-512s512 229.23 512 512z" />
<glyph unicode="&#xe90f;" glyph-name="out-walking" d="M540.8 904.32c37.859-0.182 68.479-30.915 68.479-68.799 0-37.997-30.803-68.8-68.8-68.8-37.884 0-68.617 30.62-68.799 68.462-0.001 0.113-0.001 0.225-0.001 0.338 0 37.997 30.803 68.8 68.8 68.8 0.113 0 0.225 0 0.338-0.001zM540.8 710.72c68.925 0 124.8 55.875 124.8 124.8s-55.875 124.8-124.8 124.8c-68.925 0-124.8-55.875-124.8-124.8 0-0.113 0-0.225 0-0.337 0-68.908 55.875-124.783 124.8-124.783zM486.4 672h-27.84v-345.28h55.68v288c61.76-4.8 204.16-25.6 204.16-119.36v-146.88h56v146.24c0 174.4-276.16 176.64-288 176.64zM378.56-6.4c0 174.080 101.76 212.8 112.96 216.32 124.8 23.68 150.080 106.88 145.92 149.76v164.8h-55.68v-166.4s0-2.24 0-2.88c0-7.040 3.2-71.36-102.080-90.56h-2.56c-6.4-1.6-154.56-46.080-154.56-270.4v-58.24h55.68zM766.080-48.64l16.96 53.12c-117.44 37.12-175.040 205.76-175.040 207.36l-52.8-17.6c2.56-8 67.2-197.12 211.84-242.88zM292.8 504.96v-56.96c71.219 1.725 131.037 48.637 151.994 113.081l-53.114 17.799c-14.249-42.492-52.731-72.979-98.63-75.19z" />
<glyph unicode="&#xe910;" glyph-name="POI-A" d="M522.24-64h-34.56c-15.040 15.68-366.4 390.4-366.4 648.96 2.698 207.714 171.711 375.060 379.81 375.060 1.361 0 2.72-0.007 4.077-0.021 1.039 0.016 2.51 0.025 3.983 0.025 208.1 0 377.115-167.348 379.807-374.809 0.003-258.494-351.997-633.214-366.397-649.214z" />
<glyph unicode="&#xe911;" glyph-name="poi-activity" d="M960 896c-43.375 40.516-101.807 65.393-166.051 65.393-17.228 0-34.038-1.789-50.255-5.191-91.515-16.196-172.199-60.708-233.5-124.083-128.114-128.119-164.914-306.359-88.434-418.999l-128-129.92c-3.79-3.303-6.171-8.139-6.171-13.531 0-9.897 8.023-17.92 17.92-17.92 5.392 0 10.227 2.381 13.513 6.149l139.858 140.501c3.193 3.234 5.165 7.681 5.165 12.587 0 3.651-1.092 7.047-2.967 9.879l-6.039 8.893c-71.040 98.24-36.48 260.16 80.32 376.96 56.198 58.321 130.066 99.265 212.97 114.203 14.99 3.057 29.466 4.604 44.303 4.604 54.782 0 104.64-21.081 141.905-55.572 92.343-92.354 63.863-271.554-64.137-398.914-119.68-119.68-288-153.28-384-76.16-3.029 2.423-6.917 3.888-11.146 3.888-5.372 0-10.192-2.364-13.476-6.108-6.738-7.060-93.138-93.46-157.138-157.78l-32 32c-3.24 3.224-7.707 5.217-12.64 5.217s-9.4-1.993-12.641-5.218l-241.599-240.319c-3.224-3.24-5.217-7.707-5.217-12.64s1.993-9.4 5.218-12.641l60.159-60.159c3.24-3.224 7.707-5.217 12.64-5.217s9.4 1.993 12.641 5.218l217.279 218.879c2.727 3.127 4.389 7.244 4.389 11.749 0 9.897-8.023 17.92-17.92 17.92-4.505 0-8.622-1.662-11.771-4.407l-204.779-204.462-34.88 33.28 215.36 215.36 32-32c3.24-3.224 7.707-5.217 12.64-5.217s9.4 1.993 12.641 5.218c95.999 95.999 140.159 140.159 159.999 159.999 111.68-76.16 291.84-39.36 419.84 88.32 141.12 141.44 169.6 343.040 64 448zM492.8 627.84c-3.224-3.24-5.217-7.707-5.217-12.64s1.993-9.4 5.218-12.641l173.759-173.759c3.127-2.727 7.244-4.389 11.749-4.389 9.897 0 17.92 8.023 17.92 17.92 0 4.505-1.662 8.622-4.407 11.771l-174.062 173.739c-3.24 3.224-7.707 5.217-12.64 5.217s-9.4-1.993-12.641-5.218zM520.96 750.080c-3.224-3.24-5.217-7.707-5.217-12.64s1.993-9.4 5.218-12.641l268.159-268.479c3.127-2.727 7.244-4.389 11.749-4.389 9.897 0 17.92 8.023 17.92 17.92 0 4.505-1.662 8.622-4.407 11.771l-268.142 268.459c-3.24 3.224-7.707 5.217-12.64 5.217s-9.4-1.993-12.641-5.218zM596.16 825.28c-3.224-3.24-5.217-7.707-5.217-12.64s1.993-9.4 5.218-12.641l267.839-268.159c3.303-3.79 8.139-6.171 13.531-6.171 9.897 0 17.92 8.023 17.92 17.92 0 5.392-2.381 10.227-6.149 13.513l-267.861 268.178c-3.24 3.224-7.707 5.217-12.64 5.217s-9.4-1.993-12.641-5.218zM905.28 648.96c0.551-0.060 1.189-0.094 1.836-0.094 9.897 0 17.92 8.023 17.92 17.92 0 5.749-2.707 10.865-6.916 14.144l-174.44 172.51c-3.127 2.727-7.244 4.389-11.749 4.389-9.897 0-17.92-8.023-17.92-17.92 0-4.505 1.662-8.622 4.407-11.771l173.742-173.739c3.23-3.167 7.658-5.122 12.543-5.122 0.090 0 0.18 0.001 0.27 0.002zM616.32 46.4c-13.694-13.834-32.686-22.4-53.68-22.4-0.028 0-0.056 0-0.084 0-19.748 0.146-37.594 8.188-50.557 21.121-13.442 13.483-21.755 32.090-21.755 52.639s8.312 39.156 21.758 52.642c13.692 13.832 32.685 22.398 53.678 22.398 0.028 0 0.056 0 0.084 0 0.127 0.001 0.283 0.001 0.438 0.001 19.94 0 37.996-8.070 51.079-21.123 13.52-13.448 21.888-32.066 21.888-52.639s-8.368-39.191-21.886-52.637zM565.76 208.64c-61.359-0.19-111.026-49.974-111.026-111.36 0-29.952 11.825-57.143 31.062-77.157 19.52-19.726 46.647-31.963 76.631-31.963 0.047 0 0.094 0 0.141 0h-0.007c61.359 0.19 111.026 49.974 111.026 111.36 0 29.952-11.825 57.143-31.062 77.157-19.52 19.726-46.647 31.963-76.631 31.963-0.047 0-0.094 0-0.141 0z" />
<glyph unicode="&#xe912;" glyph-name="POI-B" d="M512 957.76c-5.099 0.194-11.087 0.305-17.1 0.305-265.097 0-480-214.903-480-480 0-249.937 191.027-455.257 435.043-477.922l1.897-0.142 60.16-77.12 60.8 78.72c237.741 31.12 419.406 232.425 419.406 476.16 0 265.097-214.903 480-480 480-0.072 0-0.145 0-0.217 0z" />
<glyph unicode="&#xe913;" glyph-name="poi-eatdrink" d="M887.040 762.24v-360c0-0.001 0-0.002 0-0.003 0-9.431 7.555-17.097 16.943-17.277h102.737c9.543 0 17.28 7.737 17.28 17.28v291.52c-0.775 37.864-27.741 69.213-63.479 76.709l-52.681 8.731c-0.866 0.157-1.864 0.247-2.882 0.247-9.367 0-16.96-7.593-16.96-16.96 0-0.087 0.001-0.173 0.002-0.26zM953.28 736.64c20.353-4.305 35.554-21.691 36.477-42.784l0.003-274.336h-68.48v322.24zM509.76 162.24c-0.38-0.002-0.83-0.003-1.28-0.003-161.002 0-291.52 130.518-291.52 291.52s130.518 291.52 291.52 291.52c161.001 0 291.518-130.516 291.52-291.517 0-0.001 0-0.002 0-0.003 0-160.552-129.789-290.79-290.17-291.517zM509.76 128c179.912 0 325.76 145.848 325.76 325.76s-145.848 325.76-325.76 325.76c-179.912 0-325.76-145.848-325.76-325.76s145.848-325.76 325.76-325.76zM509.76 299.52c-85.184 0-154.24 69.056-154.24 154.24s69.056 154.24 154.24 154.24c85.184 0 154.24-69.056 154.24-154.24s-69.056-154.24-154.24-154.24zM509.76 265.28c103.543 0.726 187.2 84.831 187.2 188.476 0 104.095-84.385 188.48-188.48 188.48-104.093 0-188.478-84.383-188.48-188.475 0-0.002 0-0.003 0-0.005 0-104.095 84.385-188.48 188.48-188.48 0.45 0 0.9 0.002 1.349 0.005zM904 419.52c-9.405-0.18-16.96-7.846-16.96-17.277 0-0.001 0-0.002 0-0.003v-256c0-0.001 0-0.002 0-0.003 0-9.431 7.555-17.097 16.943-17.277h68.497c9.543 0 17.28 7.737 17.28 17.28v256c0 9.543-7.737 17.28-17.28 17.28zM955.52 384v-224h-34.24v224zM98.56 573.76v-137.28c-1.195-8.481-8.404-14.934-17.12-14.934s-15.925 6.453-17.109 14.842l-0.011 137.372c-46.080 0-68.8 34.24-68.8 85.44v103.040c-0.102 0.705-0.16 1.519-0.16 2.346 0 9.543 7.737 17.28 17.28 17.28s17.28-7.737 17.28-17.28c0-0.827-0.058-1.641-0.171-2.438l0.011-102.948c0-34.24 11.2-51.2 34.24-51.2v154.24c-0.102 0.705-0.16 1.519-0.16 2.346 0 9.543 7.737 17.28 17.28 17.28s17.28-7.737 17.28-17.28c0-0.827-0.058-1.641-0.171-2.438l0.011-154.148c23.36 0 34.24 16.96 34.24 51.2v103.040c1.195 8.481 8.404 14.934 17.12 14.934s15.925-6.453 17.109-14.842l0.011-103.132c0.32-51.2-22.4-85.44-68.16-85.44zM47.040 453.76c-9.543 0-17.28-7.737-17.28-17.28v-291.52c0-9.543 7.737-17.28 17.28-17.28h68.48c9.405 0.18 16.96 7.846 16.96 17.277 0 0.001 0 0.002 0 0.003v291.52c0 0.001 0 0.002 0 0.003 0 9.431-7.555 17.097-16.943 17.277zM98.56 419.52v-256h-34.56v256z" />
<glyph unicode="&#xe914;" glyph-name="poi-hotel" d="M512 908.8l432.32-324.16v-603.2h-261.76v320c-0.506 12.339-10.381 22.214-22.673 22.718l-295.727 0.002c-12.339-0.506-22.214-10.381-22.718-22.673l-0.002-320.047h-261.76v603.2zM498.56 955.84l-455.36-341.44c-5.641-4.293-9.253-11.002-9.28-18.556v-637.124c0.506-12.339 10.381-22.214 22.673-22.718l307.247-0.002c12.339 0.506 22.214 10.381 22.718 22.673l0.002 320.047h250.24v-320c0.506-12.339 10.381-22.214 22.673-22.718l307.247-0.002c12.339 0.506 22.214 10.381 22.718 22.673l0.002 637.167c-0.027 7.558-3.639 14.267-9.223 18.518l-454.777 341.482c-3.756 2.618-8.415 4.184-13.44 4.184s-9.684-1.565-13.517-4.235z" />
<glyph unicode="&#xe915;" glyph-name="poi-information" d="M544 736c0-17.673-14.327-32-32-32s-32 14.327-32 32c0 17.673 14.327 32 32 32s32-14.327 32-32zM512 352c-17.673 0-32 14.327-32 32v224c0 17.673 14.327 32 32 32s32-14.327 32-32v-224c0-17.673-14.327-32-32-32zM80 896c-8.765-0.176-15.824-7.235-16-15.983v-608.017c0.176-8.765 7.235-15.824 15.983-16h240.017c17.673 0 32-14.327 32-32v-189.44l268.16 214.4c5.384 4.348 12.298 6.995 19.83 7.040h304.010c8.765 0.176 15.824 7.235 16 15.983v608.017c-0.176 8.765-7.235 15.824-15.983 16zM320-64c-17.673 0-32 14.327-32 32v224h-208c-44.11 0.181-79.819 35.89-80 79.983v608.017c0.181 44.11 35.89 79.819 79.983 80h864.017c44.11-0.181 79.819-35.89 80-79.983v-608.017c-0.181-44.11-35.89-79.819-79.983-80h-292.817l-311.36-248.96c-5.384-4.348-12.298-6.995-19.83-7.040z" />
<glyph unicode="&#xe916;" glyph-name="poi-more" d="M727.68 414.080c-20.147 0-36.48 16.333-36.48 36.48s16.333 36.48 36.48 36.48c20.147 0 36.48-16.333 36.48-36.48s-16.333-36.48-36.48-36.48zM727.68 523.2c-0.095 0-0.207 0.001-0.32 0.001-40.118 0-72.64-32.522-72.64-72.64s32.522-72.64 72.64-72.64c40.118 0 72.64 32.522 72.64 72.639-0.179 39.934-32.412 72.279-72.286 72.64zM291.2 414.080c-20.147 0-36.48 16.333-36.48 36.48s16.333 36.48 36.48 36.48c20.147 0 36.48-16.333 36.48-36.48s-16.333-36.48-36.48-36.48zM291.2 523.2c-40.118 0-72.64-32.522-72.64-72.64s32.522-72.64 72.64-72.64c40.118 0 72.64 32.522 72.64 72.64-0.181 40.045-32.595 72.459-72.623 72.64zM509.44 414.080c-20.147 0-36.48 16.333-36.48 36.48s16.333 36.48 36.48 36.48c20.147 0 36.48-16.333 36.48-36.48s-16.333-36.48-36.48-36.48zM509.44 523.2c-40.118 0-72.64-32.522-72.64-72.64s32.522-72.64 72.64-72.64c40.118 0 72.64 32.522 72.64 72.64-0.181 40.045-32.595 72.459-72.623 72.64zM509.44-22.72c-261.208 0-472.96 211.751-472.96 472.96s211.751 472.96 472.96 472.96c261.096 0 472.777-211.569 472.96-472.622-0.906-260.862-212.117-472.072-472.874-472.978zM509.44 959.68c-281.356 0-509.44-228.084-509.44-509.44s228.084-509.44 509.44-509.44c281.356 0 509.44 228.084 509.44 509.44 0 0.113 0 0.225 0 0.338-1.445 280.756-228.668 507.977-509.302 509.422z" />
<glyph unicode="&#xe917;" glyph-name="poi-publicfacilty" d="M990.080 59.84h-958.080v45.76h956.8v-45.44zM164.8 166.72h120.64v-29.44h-120.64zM196.8 534.72h59.2v-335.040h-60.48zM286.72 598.72v-29.44h-121.6v29.44zM102.4 657.6h818.24v-27.2h-818.24zM512 849.6l406.72-160h-814.080zM856.32 567.68h-120.32v29.44h119.36zM826.88 199.68h-60.8v335.36h60.16zM737.28 167.68h120.32v-29.44h-121.6zM452.16 167.68h119.36v-29.44h-120.32zM571.52 568.64h-121.28v29.44h119.36v-29.44zM542.080 200.64h-62.080v334.4h60.16zM318.080 136.64v46.080c0.002 0.096 0.003 0.21 0.003 0.323 0 9.19-7.45 16.64-16.64 16.64-0.114 0-0.227-0.001-0.34-0.003h-13.103v335.36h13.76c0.096-0.002 0.21-0.003 0.323-0.003 9.19 0 16.64 7.45 16.64 16.64 0 0.114-0.001 0.227-0.003 0.34v45.423h100.16v-45.44c-0.002-0.096-0.003-0.21-0.003-0.323 0-9.19 7.45-16.64 16.64-16.64 0.114 0 0.227 0.001 0.34 0.003h12.143v-335.36h-13.76c-9.227-0.34-16.62-7.733-16.959-16.928l-0.001-45.472zM603.2 136.64v46.080c-0.34 9.227-7.733 16.62-16.928 16.959l-13.472 0.001v335.36h13.76c0.096-0.002 0.21-0.003 0.323-0.003 9.19 0 16.64 7.45 16.64 16.64 0 0.114-0.001 0.227-0.003 0.34v45.423h100.48v-45.44c0.34-9.227 7.733-16.62 16.928-16.959l13.792-0.001v-335.36h-13.76c-9.227-0.34-16.62-7.733-16.959-16.928l-0.001-45.472zM1005.44 136.64h-116.8v46.080c-0.34 9.227-7.733 16.62-16.928 16.959l-13.792 0.001v335.36h13.76c0.096-0.002 0.21-0.003 0.323-0.003 9.19 0 16.64 7.45 16.64 16.64 0 0.114-0.001 0.227-0.003 0.34v45.423h47.68c0.096-0.002 0.21-0.003 0.323-0.003 9.19 0 16.64 7.45 16.64 16.64 0 0.114-0.001 0.227-0.003 0.34v44.463h52.16c0.047 0 0.102-0.001 0.157-0.001 8.047 0 14.706 5.94 15.832 13.674 0.248 1.109 0.384 2.282 0.384 3.488 0 6.846-4.387 12.667-10.503 14.805l-494.51 192.033c-1.87 0.547-4.018 0.861-6.24 0.861s-4.37-0.314-6.403-0.901l-493.917-192.28c-6.191-2.817-10.417-8.949-10.417-16.068 0-0.879 0.064-1.743 0.189-2.588 1.125-7.725 7.784-13.665 15.831-13.665 0.055 0 0.111 0 0.166 0.001h52.472v-43.84c-0.002-0.096-0.003-0.21-0.003-0.323 0-9.19 7.45-16.64 16.64-16.64 0.114 0 0.227 0.001 0.34 0.003h46.703v-45.44c-0.002-0.096-0.003-0.21-0.003-0.323 0-9.19 7.45-16.64 16.64-16.64 0.114 0 0.227 0.001 0.34 0.003h13.743v-335.36h-13.76c-9.227-0.34-16.62-7.733-16.959-16.928l-0.001-45.472h-114.88c-0.287 0.018-0.622 0.029-0.96 0.029-8.837 0-16-7.163-16-16 0-0.010 0-0.020 0-0.030v-78.398c-0.002-0.096-0.003-0.21-0.003-0.323 0-9.19 7.45-16.64 16.64-16.64 0.114 0 0.227 0.001 0.34 0.003h989.743c9.227 0.34 16.62 7.733 16.959 16.928l0.001 78.432c-1.294 9.042-8.952 15.926-18.232 16z" />
<glyph unicode="&#xe918;" glyph-name="poi-sight" d="M815.040 141.76c-92.774 1.619-167.36 77.207-167.36 170.216 0 94.021 76.219 170.24 170.24 170.24 94.012 0 170.226-76.205 170.24-170.214-0.903-94.217-77.489-170.246-171.833-170.246-0.453 0-0.905 0.002-1.357 0.005zM632.32 701.76c-0.226 2.619-0.355 5.666-0.355 8.744 0 30.16 12.381 57.428 32.338 76.999 21.213 22.644 51.276 36.742 84.632 36.742 54.18 0 99.673-37.196 112.334-87.445l82.091-261.28c-34.817 27.296-79.253 43.773-127.537 43.773-74.143 0-139.212-38.853-175.957-97.31zM419.84 509.76l2.56 109.12h177.28l2.56-109.12zM207.36 521.92c-48.391-0.046-92.952-16.408-128.486-43.881l81.126 262.121c12.168 51.008 57.357 88.351 111.268 88.351 0.933 0 1.863-0.011 2.79-0.033 33.187-0.017 63.208-14.144 84.28-36.73 18.951-19.751 30.582-46.526 30.582-76.016 0-3.454-0.16-6.871-0.472-10.244l-8.288-280.207c-36.159 57.988-99.595 96.004-171.911 96.004-0.425 0-0.85-0.001-1.274-0.004zM207.36 145.92c-94.109 0-170.4 76.291-170.4 170.4s76.291 170.4 170.4 170.4c94.109 0 170.4-76.291 170.4-170.4s-76.291-170.4-170.4-170.4zM1001.92 401.92l-107.84 342.080c-16.055 66.83-75.262 115.742-145.909 115.84-43.464-0.125-82.627-18.388-110.347-47.612-24.691-25.86-39.847-60.88-39.847-99.44 0-3.881 0.154-7.727 0.455-11.53l-0.032-47.178h-176v50.56c0.268 3.353 0.421 7.26 0.421 11.203 0 38.744-14.744 74.045-38.928 100.596-27.605 29.097-66.637 47.342-109.932 47.56-0.597 0.008-1.254 0.012-1.912 0.012-69.852 0-128.389-48.444-143.847-113.568l-107.721-346.924c-12.874-25.902-20.408-56.412-20.408-88.681 0-112.048 90.832-202.88 202.88-202.88 1.438 0 2.872 0.015 4.302 0.045-0.021-0.004 0.207-0.005 0.435-0.005 113.317 0 205.305 91.318 206.39 204.378l0.001 9.703 4.16 148.48h185.28l4.48-151.68v-9.6c0-114.433 92.767-207.2 207.2-207.2s207.2 92.767 207.2 207.2c-2.306 32.18-10.679 61.9-23.981 88.745z" />
<glyph unicode="&#xe919;" glyph-name="poi-target" d="M512 622.4c0.19 0.001 0.415 0.001 0.64 0.001 96.318 0 174.4-78.082 174.4-174.4s-78.082-174.4-174.4-174.4c-96.318 0-174.399 78.081-174.4 174.399 0 0.095 0 0.208 0 0.32 0 96.029 77.756 173.898 173.743 174.080zM512 668.8c-121.944 0-220.8-98.856-220.8-220.8s98.856-220.8 220.8-220.8c121.944 0 220.8 98.856 220.8 220.8 0 0 0 0 0 0 0 122.009-98.816 220.937-220.782 221.12zM488.64 854.080v-80.64c-0.102-0.819-0.16-1.768-0.16-2.729 0-12.901 10.459-23.36 23.36-23.36s23.36 10.459 23.36 23.36c0 0.962-0.058 1.91-0.171 2.841l0.011 80.528c207.358-11.337 372.663-176.642 383.955-382.962l-83.475-1.038c-11.257-1.808-19.754-11.452-19.754-23.080 0-12.421 9.694-22.577 21.929-23.317l80.705-0.003c-11.337-207.358-176.642-372.663-382.962-383.955l-1.038 83.155c0.102 0.819 0.16 1.768 0.16 2.729 0 12.901-10.459 23.36-23.36 23.36s-23.36-10.459-23.36-23.36c0-0.962 0.058-1.91 0.171-2.841l-0.011-80.528c-207.358 11.337-372.663 176.642-383.955 382.962l82.835 1.038c0.819-0.102 1.768-0.16 2.729-0.16 12.901 0 23.36 10.459 23.36 23.36s-10.459 23.36-23.36 23.36c-0.962 0-1.91-0.058-2.841-0.171l-80.208 0.011c11.337 207.358 176.642 372.663 382.962 383.955zM509.76 960c-11.755-1.331-20.805-11.219-20.805-23.22 0-0.162 0.002-0.323 0.005-0.484v-35.496c-231.897-12.519-416.777-197.51-429.072-428.307l-37.808-1.133c-11.257-1.808-19.754-11.452-19.754-23.080 0-12.421 9.694-22.577 21.929-23.317l35.585-0.003c12.519-231.897 197.51-416.777 428.307-429.072l1.133-35.568c-0.102-0.819-0.16-1.768-0.16-2.729 0-12.901 10.459-23.36 23.36-23.36s23.36 10.459 23.36 23.36c0 0.962-0.058 1.91-0.171 2.841l0.011 35.408c231.793 12.505 416.615 197.327 429.071 427.973l35.569 1.147c0.819-0.102 1.768-0.16 2.729-0.16 12.901 0 23.36 10.459 23.36 23.36s-10.459 23.36-23.36 23.36c-0.962 0-1.91-0.058-2.841-0.171l-35.408 0.011c-12.343 231.93-197.223 416.921-427.973 429.391l-1.147 35.569c0.003 0.137 0.005 0.299 0.005 0.461 0 12.901-10.459 23.36-23.36 23.36-0.903 0-1.795-0.051-2.672-0.151z" />
<glyph unicode="&#xe91a;" glyph-name="menue" d="M137.6 310.4c73.6 0 137.6 64 137.6 137.6s-64 137.6-137.6 137.6c-73.6 0-137.6-64-137.6-137.6s64-137.6 137.6-137.6zM512 310.4c73.6 0 137.6 64 137.6 137.6s-64 137.6-137.6 137.6c-73.6 0-137.6-64-137.6-137.6s64-137.6 137.6-137.6zM886.4 585.6c-73.6 0-137.6-64-137.6-137.6s64-137.6 137.6-137.6c73.6 0 137.6 64 137.6 137.6s-64 137.6-137.6 137.6z" />
</font>
</defs>
</svg>
